<svg xmlns="http://www.w3.org/2000/svg" width="512" height="512" fill="none"><g clip-path="url(#a)"><rect width="512" height="512" fill="#92C9E1" rx="148"/><path fill="#612655" d="M424.257 25.805c13.105-13.913 7.363-48.158-13.868-46.832-2.929 1.969-3.574 2.955-4.204 6.534-.991 5.633-1.015 11.076-6.357 14.556-8.98 5.846-18.643 1.563-27.998-.658-8.745-2.077-18.355-1.526-26.055 3.517-15.483 10.396-19.067 31.246-20.366 48.375-5.298-6.02-9.766-10.909-16.489-15.347-25.508-16.836-55.117-15.125-78.301 4.91-15.737 13.593-16.45 32.656-29.79 47.463-18.679 20.158-62.223 13.799-64.079 49.331-.716 13.721 5.116 27.096 14.263 36.949a69.993 69.993 0 0 0 27.597 18.004c2.731 7.096 4.755 14.672 7.571 21.442-3.284 3.069-6.456 3.337-9.065 5.99l-.31 1.147c1.988 3.259 9.814 2.946 13.11 2.248 7.934 16.816 15.884 31.792 31.186 43.2 17.686 13.188 35.186 14.126 55.586 7.533-6.333 15.262-10.927 27.591-14.663 43.914-3.486 15.264-6.504 34.449-11.841 49.037-10.673.648-21.035 12.796-31.621 14.671l-18.31-55.389c-1.089-3.189-7.393-23.914-9.971-24.973-3.955-1.623-13.644-3.255-18.233-4.136l-31.442-6.038-57.744-11.068c-7.969-1.474-19.35-3.914-27.088-4.814-2.424 2.265-10.144 8.552-10.635 11.274.794 4.707 3.419 11.395 5.12 16.039l9.947 26.664c12.17 33.552 24.01 67.309 37.287 100.462.509 1.272 2.563 5.896 3.502 6.342 7.532 3.577 21.602 5.235 29.723 7.428-10.414 7.408-21.438 14.014-31.424 22.076-42.901 34.634-79.836 82.266-107.02 130.01a406.389 406.389 0 0 0-11.315 21.059c-2.414 4.893-4.998 10.889-7.562 15.557-11.32-3.98-20.875-9.312-32.967-12.236-37.617-9.107-82.536-9.009-118.777 5.263-45.898 18.072-85.317 55.059-102.405 101.7-1.237 3.359-3.605 10.4-2.783 13.837l.702.757c4.475-.981 9.534-4.56 13.812-6.479 27.49-12.31 58.071-8.462 86.612-2.447 38.867 8.194 73.828 5.181 109.571-12.48a172.366 172.366 0 0 0 1.698 133.755c12.686 29.126 38.449 58.891 67.903 72.095 1.701.761 3.127 1.001 4.942.634.805-.644 1.017-.522.981-1.391-.193-4.639-2.542-8.755-3.145-13.535-2.582-20.45 1.914-37.876 9.892-56.475 14.84-32.734 26.09-58.345 26.142-94.868 1.67-.498 3.243-1 4.731-1.507 21.875-7.451 25.222-15.879 44.518-25.686-3.54 9.834-5.395 19.356 7.038 23.873 17.375 6.308 39.003-17.037 52.025-17.593l1.267.517c.259 1.416-5.693 11.949-6.409 12.544-11.611 9.619-24.959 22.866-21.989 39.566 7.326 41.167 52.565 20.273 75.39 7.412 4.121-2.324 11.993-4.566 16.27-5.752-7.124 8.017-12.109 16.719-11.567 27.739.81 15.845 15.332 24.009 29.887 21.709 24.175-3.818 46.699-12.5 71.26-3.882 39.087 13.745 66.636 47.324 102.471 67.29 15.293 8.521 29.843 15.698 46.782 20.611 84.297 24.428 189.468-1.026 204.678-100.909 1.084-7.119 1.562-14.692 2.861-21.792 2.305-8.794 5.747-17.534 8.052-26.787 6.674-26.782 7.924-61.489 4.35-88.847-10.376-79.356-64.311-163.911-126.606-213.067-26.665-21.04-60.147-37.42-94.785-33.264-3.13.375-9.79 1.408-12.823 2.149a868.507 868.507 0 0 0-7.109-46.369c-1.67-9.155-3.897-18.795-5.308-27.893-.849-5.486.186-15.424-.371-21.749-3.227-36.676-8.525-84.82-39.272-109.549-9.331-7.508-20.064-11.186-31.802-11.105l-.381.005c-7.251-4.92-11.606-8.467-17.051-15.379 14.81-9.218 29.195-21.093 37.134-36.965 16.758-33.503 3.858-73.786-19.428-100.747 5.952.452 11.162 1.042 17.119 2.115 12.168 2.192 26.635 8.553 37.158-1.438 7.358-6.985 13.491-19.415 4.59-27.807-1.114-1.067-1.47-1.74-3.052-2.11-3.008 1.594.024 6.66-1.362 8.486-4.351 5.732-15.367-.603-19.034-2.994-15.913-10.37-32.998-.299-42.002 13.792-.38.6-1.582 1.104-2.358 1.214-4.761-3.089 4.248-17.255 6.572-20.668 9.2-13.777 19.366-8.475 33.418-7.074 18.091 1.805 30.996.913 43.819-12.696Z"/><path fill="#FC7A7A" d="M320.077 441.407c2.432.375 8.184 6.325 11.123 7.859 30.093 15.722 62.735 22.998 94.78 8.784-.537 43.598-9.77 89.067-45.468 118.179-32.124 26.191-63.994 18.74-100.337 8.974-33.54-9.009-66.822-21.304-101.394-25.2-54.914-6.597-111.692 12.505-154.808 46.963-23.148 19.419-36.328 35.884-56.958 57.265C7.63 580.057 60.754 491.839 145.583 445.906c18.823 3.628 37.438 7.564 56.213 11.504 9.057 1.9 26.255 5.445 35.22 7.891 6.362-2.046 17.91-4.8 24.267-6.841 19.307-6.211 39.61-10.708 58.794-17.053Z"/><path fill="#612655" d="M274.208 478.533c5.464-.068 9.722 1.133 13.374 5.469a15.07 15.07 0 0 1 3.525 11.66c-1.054 8.516-7.382 12.881-15.712 11.499-1.602-1.016-2.369-1.333-2.627-3.169 2.636-2.793 12.919-2.06 10.991-11.904-1.656-8.472-10.142-5.845-14.6-8.638l-.215-1.04c1.304-2.646 2.442-2.808 5.264-3.877ZM140.197 506.375c1.896-.073 3.873-.176 5.742.161a14.991 14.991 0 0 1 10.07 6.69c5.827 8.994 2.004 23.95-10.642 20.097.004-4.482 4.985-4.619 6.087-7.798 4.891-14.111-15.043-12.676-18.226-14.345l-.09-.865c2.31-2.666 3.596-2.881 7.059-3.94ZM355.15 480.506a43.82 43.82 0 0 1 3.56-.22 12.426 12.426 0 0 1 9.087 3.765 14.222 14.222 0 0 1 3.979 10.517c-.327 8.443-6.245 11.753-13.969 11.241-.567-.635-1.006-1.265-1.519-1.953l.176-.884c3.613-1.416 6.05-1.406 7.739-5.489a7.86 7.86 0 0 0-.156-6.367c-3.887-8.213-12.725-2.436-14.351-6.25 1.123-2.759 2.803-3.222 5.454-4.36ZM115.882 476.136c23.389-.742 11.814 35.332.615 23.261 3.672-2.514 7.751-5.522 6.731-11.147-1.462-8.066-12.894-3.726-15.651-5.654-1.041-4.209 5.223-5.616 8.305-6.46ZM316.903 455.105c19.068.777 21.768 24.668 4.033 26.602-2.089-.679-3.349-.723-3.798-3.013 3.086-3.711 8.872-3.701 8.027-10.942-.981-8.413-7.3-6.387-11.323-9.585l-.02-1.055c1.153-1.299 1.514-1.347 3.081-2.007ZM180.989 472.752c1.128.005 2.254.063 3.375.185 16.226 1.7 16.065 26.275 2.437 23.121 11.924-19.678-10.777-15.616-13.219-18.243.71-2.783 4.968-4.365 7.407-5.063ZM241.004 467.874a32.26 32.26 0 0 1 3.376.186c16.225 1.699 16.064 26.274 2.436 23.12 11.924-19.678-10.776-15.616-13.218-18.243.71-2.783 4.967-4.365 7.406-5.063Z"/><path fill="#92C9E1" d="M447.806 440.923c76.87-6.414 146.346 85.53 180.946 146.119-1.945-2.317-3.827-4.675-5.757-7.002-21.379-25.763-46.65-47.633-72.236-68.782-4.405-3.643-8.493-7.347-13.332-10.404 3.723 7.647 16.757 25.929 6.22 32.366-21.085 12.887-25.929-27.114-45.568-28.961-22.44-2.11-6.64 19.643-.62 27.139 9.624 11.989 20.676 37.792 5.63 49.496-2.081 1.084-4.025 1.566-6.26 2.239-21.839-5.67-20.489-30.158-44.119-36.073-22.958 6.29-3.523 30.929 2.264 42.975 4.241 7.674 15.815 35.697 8.724 43.774-28.975 32.311-36.947-53.475-64.425-47.916-6.618 1.339-7.088 11.319-5.76 17.463 1.965 9.077 7.346 24.452 2.308 33.214-4.056 7.063-12.902 8.878-19.881 4.097-11.945-8.183-17.199-23.848-20.182-37.765 31.557-9.113 51.157-32.672 64.571-62.34 14.753-32.641 14.615-60.894 12.63-95.982 5.155-1.242 9.604-3.006 14.847-3.657Z"/><path fill="#FBF1BB" d="M53.385 287.407c6.114.464 24.983 4.519 32.021 5.823a5442.59 5442.59 0 0 1 61.774 11.744c9.496 1.854 19.497 4.206 28.943 5.808 1.073 4.323 4.11 11.925 5.677 16.356l12.813 35.737c10.552 29.265 20.523 58.929 31.211 88.1-29.595-6.451-59.799-11.357-89.475-17.526-10.193-2.118-20.538-3.615-30.714-5.82-2.314-6.475-5.26-13.357-7.718-19.889l-16.906-45.565c-9.303-25.01-17.973-49.827-27.626-74.768Z"/><path fill="#612655" d="M129.287 355.871c11.887.943 18.953 20.085 7.328 26.656-13.384 1.578-19.597-20.58-7.328-26.656Z"/><path fill="#fff" d="M322.958 141.722c4.487-.239 8.301 1.273 10.439 5.256 8.047 14.972 1.075 32.156-14.267 38.76-2.437 1.048-4.854 1.111-7.11 2.32-.512 1.416-.566.74-.126 2.066.517.222 2.246.914 2.456 1.407 6.562 15.623 17.705 29.753 31.894 39.056-7.266 15.726-10.981 31.473-12.876 48.637-11.528 13.027-24.619 34.82-30.62 51.21-11.606-13.426-13.979-34.683-5.786-50.526 3.462-6.694 7.031-13.333 10.308-20.12.786 3.058 1.523 8.522 4.453 9.943l.673-.47c1.314-5.217-2.958-18.85-4.628-24.407 1.831-4.38 8.066-20.969 4.423-25.073l-.712.453a65.52 65.52 0 0 1-.928 4.835c-3.814 16.543-13.296 25.999-27.407 34.799-13.101 7.79-24.981 11.482-40 7.469-20.581-5.5-30.586-20.536-40.718-37.535 8.813 4.661 20.981 6.516 20.644-7.949-.102-4.289-5.258-17.394-10.151-17.77-1.143 2.484 6.611 13.904 5.684 18.291-2.427 11.444-17.969-1.84-21.055-6.77-11.196-17.885-16.862-38.053-13.42-59.108 30.939 12.115 57.678 10.824 83.825-10.21 8.047 9.082 27.354 26.269 39.985 24.543 7.906-1.08-.493-24.27 15.02-29.107Z"/><path fill="#612655" d="M256.576 171.524c3.193.053 4.473 2.454 6.499 4.745 2.832-1.01 5.049-2.268 7.783-1.033 2.178 3.093-2.514 7.335-4.892 9.085 1.831 5.245 2.983 10.536 2.768 16.133-.298 7.778-5.537 14.357-13.838 13.456-7.519-.816-12.861-6.489-17.441-12.002-1.943-2.777-6.123-9.513-4.814-12.756 2.802.414 10.029 12.045 15.8 14.627 26.744 11.969 7.696-23.463 8.135-32.255ZM270.092 222.225c3.359.573 6.67 2.097 6.352 6.007-1.611.707-.732-.876-3.056-1.028-.23.773-.469 1.542-.718 2.309-3.862 11.816-9.844 14.001-19.146 18.733 3.042 3.94 8.765-1.579 11.509-3.644l.659.39.371 1.835c-4.458 9.567-18.193 6.798-20.097.469l.469-1.377c4.326-1.502 11.474-3.707 15.004-6.637 4.478-3.715 7.793-9.493 7.774-15.375-.005-.863.185-.744.879-1.682ZM324.828 165.79c.498-1.939.903-2.517.542-4.522-2.749-1.891-6.23 1.615-8.467 3.361l-.654-.508c.044-3.702 5.225-14.795 8.872-15.802l1.343.481c.669 1.744-.879 3.241-1.939 4.659l.113.723.713.052c.82.065 1.406.138 2.211.256 2.779 4.109 2.183 11.527.123 15.869-1.241-1.064-2.071-3.047-2.857-4.569ZM242.758 232.897c2.226-.084 2.885-.296 4.804.642 2.144 2.931-.556 4.46-2.836 6.195-2.378.342-3.199.644-5-.685-1.138-3.144.502-4.545 3.032-6.152Z"/><path fill="#692C5D" d="M327.685 170.359c-1.641 1.827-2.881 3.949-5.396 3.032-1.352-1.988-.83-6.03.718-7.686l1.821.085c.786 1.523 1.616 3.505 2.857 4.569Z"/><path fill="#fff" d="M352.323 230.82c15.352 2.462 27.027 9.397 36.695 21.674 24.521 31.152 28.545 100.007 23.964 138.188-1.386 11.554-4.008 30.462-13.994 37.936-4.946 3.704-10.854 3.854-16.679 2.684-13.941-2.796-31.192-13.748-44.229-20.505a651.949 651.949 0 0 0-33.33-16.377c-3.965-1.832-15.342-7.38-19.229-7.231-14.404.556-40.205-.99-46.064 10.729-2.441 1.953-4.194 9.993-6.953 11.04l-.859-.786c-.391-1.364-.166-1.282-.083-2.73l-.015-.635-.894-.562c-2.27-.403-2.168-.648-3.296-2.252-1.215-2.593-1.757-4.829-2.509-7.563 12.021-22.142 16.845-21.504 40.493-22.392 28.1-1.054 51.523 4.665 78.169 12.893 6.294 1.943 32.749 12.342 36.645 11.739.357-.301.449-.333.703-.806 2.471-4.545 1.563-54.279.762-63.142-.923-10.28-2.28-21.171-4.971-31.143-.961-3.551-3.227-12.646-6.596-14.582l-.532.445c-.293 1.359-.435 3.121-.147 4.472 2.236 10.518 3.857 20.711 5.205 31.384-9.809-15.366-20.727-33.05-35.683-43.97.585-15.214 7.392-34.703 13.427-48.508Z"/><path fill="#692C5D" d="M227.357 401.993c1.773-10.071 7.144-19.626 17.217-23.265-5.361 5.829-9.282 9.513-11.699 17.436-.61 2.017-1.597 6.449-2.222 8.081-2.27-.403-2.168-.648-3.296-2.252Z"/><path fill="#FC7A7A" d="M303.52 48.029c7.348-.65 13.471 2.313 19.326 6.22-21.079-.494-37.124 12.41-47.935 29.559-8.769 13.917-14.814 30.367-29.326 39.462-3.477 2.179-7.09 3.933-10.43 6.33l-.493.36c40.996-12.913 36.26-54.637 74.229-69.133 4.233-1.618 7.231-2.215 11.728-2.551-16.055 28.123-26.045 53.138-48.31 77.175-20.796 22.349-44.605 29.71-74.473 21.053-12.686-3.677-33.68-15.662-37.684 5.284-.857 4.48.277 8.747 1.848 12.866-6.805-6.432-12.856-13.289-13.497-23.253-1.843-28.672 42.062-24.722 60.695-28.887 10.879-2.431 18.003-4.52 27.329-10.718 17.002-11.301 20.845-29.842 33.008-44.677 8.926-10.891 19.834-17.71 33.985-19.09Z"/><path fill="#FC7A7A" d="M268.109 27.502c15.03-2.536 33.296 5.495 44.414 15.267-25.19-4.13-41.069 7.293-54.057 28.454-8.36 13.622-12.818 27.296-27.324 36.101-21.236 12.89-46.114 8.136-68.179 15.646-12.702 5.317-17.761 10.315-19.269 24.747-8.113-45.801 38.264-33.717 61.373-57.419 12.344-12.657 14.805-28.615 25.054-42.293 8.599-11.473 23.94-18.869 37.988-20.504Z"/><path fill="#fff" d="M418.822 394.37c3.55 5.183 7.281 47.138 7.276 55.359-24.068 17.383-62.989 8.707-87.481-3.505-4.433-2.258-7.558-4.231-11.665-7.003 7.905-2.54 24.995-6.461 30.781-10.596 13.321 5.587 30.523 14.009 44.175 4.768 10.821-7.324 14.551-27.142 16.914-39.023Z"/><path fill="#FC7A7A" d="M331.532 48.219c1.343-13.816 3.362-32.967 15.083-42.344A25.64 25.64 0 0 1 365.902.454c10.664 1.37 19.541 7.233 30.767 4.668 8.511-1.945 14.101-6.85 15.234-15.848.302-2.397-.731-6.596 1.123-8.04 3.732-2.904 10.925 8.812 11.944 12.383 4.474 15.688-3.81 30.47-19.756 34.426-6.847 1.699-13.473 1.988-20.527 1.623-9.982-.515-22.091-4.954-31.299.206-5.645 3.163-9.274 8.868-12.456 14.248-2.453 4.146-3.33 8.66-5.723 12.602-.117.192-.53.371-.557.148-.883-7.492 3.906-25.604 9.131-32.18 4.399-5.537 9.409-8.55 16.563-9.395 9.995-1.18 33.136 10.657 39.111.635 1.205-2.021-10.249-.624-13.227-1.054-9.673-1.395-19.37-6.664-29.273-4.493-17.871 3.919-22.617 22.668-24.399 38.204-.049.423-1.067.055-1.026-.368Z"/><path fill="#fff" d="M375.458 336.71c2.188 7.156 1.265 44.731.767 54.097-3.394-1.273-6.675-2.68-10.02-4.059-19.185-7.909-38.232-13.393-58.491-17.692a1188.099 1188.099 0 0 0-17.31-2.825l.396-9.522c8.247-1.988 10.845-2.582 17.383-8.113 20.61 11.675 52.773 8.101 67.275-11.886Z"/><path fill="#FC7A7A" d="M338.021 67.656c2.408 1.316 6.949 6.836 8.619 9.034 21.225 27.901 34.482 68.581 12.47 99.886-7.031 9.996-14.301 15.798-24.047 23.012-2.754 1.992-4.507 3.048-7.461 4.734-2.998-4.346-5.147-7.873-7.803-12.393.464-.177.923-.359 1.377-.547 9.033-3.722 16.186-9.882 19.58-19.157 9.531-26.039 15.459-53.549 6.86-80.77-2.822-8.945-6.108-15.394-9.595-23.799Z"/><path fill="#FB7979" d="M325.609 57.82c2.618 1.642 5.088 3.542 7.578 5.38.333 25.58-8.393 51.112-16.425 75.085-5.454 4.406-6.441 6.452-8.858 12.723-3.432-2.148-6.977-4.746-10.307-7.09-5.996-4.404-9.927-7.86-14.453-13.72 15.122-20.561 28.828-49.538 42.465-72.378Z"/><path fill="#FBF1BB" d="M254.594 389.129c16.46 4.928 47.095 14.899 63.618 19.312 5.977 1.597 18.052 8.088 24.219 10.903a4792.605 4792.605 0 0 0-61.28 18.077c-11.391 3.385-23.198 6.529-34.482 10.136-.459.097-1.255.205-1.738.283-1.841-1.494-2.891-5.104-3.789-7.449 18.125-5.44 58.481-15.667 77.656-22.711.81-.297.947-2.014.996-2.927-1.851-2.682-21.919-7.169-26.729-8.324-12.749-3.06-33.364-15.452-46.396-14.859 5.195-1.41 2.573-1.746 7.925-2.441ZM187.938 305.487l.635.562c2.217 6.029 4.009 13.095 6.338 19.417 7.153 19.405 13.428 39.507 20.396 58.897a3318.94 3318.94 0 0 1 16.191 44.814c1.538 4.416 7.617 19.893 6.24 22.93-1.465 1.08-3.076 1.143-4.897 1.436-2.31-3.047-12.573-34.862-14.527-40.67l-14.028-40.569c-7.207-20.404-15.386-41.184-22.215-61.651l5.867-5.166Z"/><path fill="#FC7A7A" d="M354.193 302.175c1.787 1.443 5.762 7.434 7.31 9.685a678.29 678.29 0 0 1-26.06 12.18c-2.978 1.299-23.955 9.923-25.185 11.38l.625.618c3.139.372 6.328-.676 9.365-1.36 15.649-3.525 29.614-11.918 43.452-19.825l2.564 4.041 2.622 4.576c-15.933 11.188-31.47 15.227-50.679 16.432-12.148.762-14.385 1.191-9.98-12.168 8.12-2.78 16.084-7.913 23.51-12.325l22.456-13.234ZM337.196 75.645c1.963 2.962 4.048 9.803 5.244 13.28 8.047 23.438 4.864 45.121.088 68.584l-1.757-7.28c-3.384-10.171-6.924-13.895-17.583-14.489 8.066-19.573 11.743-39.209 14.008-60.095Z"/><path fill="#fff" d="m302.387 253.338.298.308c.307 3.519-12.598 26.273-15.337 30.65-11.87 18.958-32.495 60.939-2.427 74.121-.044 2.549-.366 4.627-.698 7.141l-7.583-.698a510.173 510.173 0 0 0-18.838-.667c7.925-29.625 11.714-58.503 23.725-86.92 7.217-17.074 8.863-12.32 20.86-23.935Z"/><path fill="#FC7A7A" d="M347.011 68.883c-.62-1.104-1.372-2.433-.542-3.664 7.216-10.872 20.659-18.631 33.706-12.922 11.381 4.98 14.97 10.375 27.602 4.324-.996 5.056-4.214 10.118-8.135 13.43-10.253 8.656-23.378.865-34.648-.99-3.545-.584-9.429-.63-13.364-.973l-1.109.602-.146.712c-.166.795-.044.518-.264.933l.073-.292-1.22.456.517.22.533-.484c-2.334-.363-1.402.14-3.003-1.352Z"/><path fill="#612655" d="M347.011 68.883c1.621-1.286 3.291-3.902 4.941-5.468 7.417-7.044 19.043-7.092 28.115-3.628 2.491.95 11.265 4.343 12.603 6.069l-.635.614c-4.233.733-17.178-4.648-22.944-4.756-8.12-.15-11.411 1.2-17.461 6.374l-1.109.602-.146.712c-.166.795-.044.518-.264.933l.074-.292-1.221.456.517.22.533-.484c-2.334-.363-1.402.14-3.003-1.352Z"/><path fill="#FBF1BB" d="M58.152 278.624c6.65.797 17.23 3.078 24.044 4.316a1600.407 1600.407 0 0 1 52.35 9.979c14.358 2.879 34.398 5.869 48.239 9.586-1.278 1.159-2.751 2.332-4.087 3.445-19.732-3.131-39.737-7.501-59.369-11.405-21.36-4.248-43.708-7.471-64.879-12.257l3.702-3.664Z"/><path fill="#FC7A7A" d="M279.628 135.15c6.523 9.122 17.451 15.684 26.904 21.334a531.919 531.919 0 0 0-.766 8.824l-4.986-1.754c-11.845-4.883-21.201-10.737-28.423-21.441l7.271-6.963ZM370.575 327.007c1.153 1.268 1.563 1.5 1.729 3.206-2.251 8.529-16.045 14.732-23.892 16.919-10.478 2.92-19.868 1.723-30.21-.777l-6.362-2.156c3.843.064 7.685.102 11.523.114 16.739-.043 35.142-5.207 47.212-17.306Z"/><path fill="#FBF1BB" d="M348.134 423.834c1.86-.065 1.02-.275 2.617.601l.083.78c-1.655 1.642-92.002 27.302-102.295 30.281-.601.142-1.079.151-1.704.2-1.113-1.221-.894-.542-.884-2.036 1.255-1.733 23.633-7.285 27.822-8.51l74.361-21.316Z"/><path fill="#A33136" d="M170.644 153.313c3.268-.125 4.812.261 8.025.85-1.599 13.557-2.301 14.804-.66 28.25l-.389.39-2.399-1.187c-9.54-6.066-15.935-21.178-4.577-28.303Z"/><path fill="#FC7A7A" d="M345.453 292.823c2.129.551 4.707 4.013 6.245 5.797-1.924 1.164-4.311 2.377-6.343 3.37-10.459 5.123-19.877 10.874-29.453 17.485l-5.322 3.268c7.783-14.281 20.747-22.177 34.873-29.92ZM276.483 321.602c6.607 6.24 16.7 9.809 24.004 15.117.777.566.894 1.78.835 2.751l-.947.45c-8.603 1.12-17.012-.283-25.015-3.493-.473-5.993-.117-8.96 1.123-14.825Z"/><path fill="#612655" d="M245.302 428.285c1.235-1.938 2.749-3.146 4.892-1.546.244 1.756.025 1.552-1.24 3.061-1.763-.467-2.021-.633-3.652-1.515Z"/><path fill="#FC7A7A" d="M276.664 341.153c8.506 3.196 15.288 4.172 24.087 2.737 1.265-.206 1.924-.382 2.881.376-.415 1.788-.762 1.636-2.271 3.202a48.5 48.5 0 0 1-2.275 1.207c-11.729 5.784-17.251 4.226-22.422-7.522ZM336.015 286.775c2.739.412 5.024 3.454 6.997 5.529-5.069 2.358-8.784 4.649-13.316 7.848l-4.863 3.376c3.569-6.945 6.411-10.658 11.182-16.753ZM280.546 311.356c2.544 2.055 13.222 12.212 12.471 15.202l-1.026-.289c-4.409-2.396-9.985-5.001-14.541-7.261l3.096-7.652ZM287.699 296.281c.811.953 1.031 13.636-.132 14.819l-1.313-1.352-3.897-4.313c1.661-3.014 3.589-6.169 5.342-9.154Z"/><path fill="#fff" d="m226.142 380.832.576.059.215.441a206.066 206.066 0 0 1-3.912 6.501l-.629-.721c-1.119-4.173.112-4.868 3.75-6.28Z"/><path fill="#FC7A7A" d="M331.547 47.82s1.267-.56 1.172.489c-.096 1.048-.284 5.895-1.172 7.112-.571-1.556-.171-5.88 0-7.6Z"/></g><defs><clipPath id="a"><rect width="512" height="512" fill="#fff" rx="148"/></clipPath></defs></svg>